<svg xmlns="http://www.w3.org/2000/svg" version="1.0" width="573.000000pt" height="482.000000pt" viewBox="0 0 483.000000 482.000000" preserveAspectRatio="">


    
    <g transform="" fill="#00000" stroke="none">
        <path style="transform: scale(3.05) translate(4px, 4px);" id="path0" d="M107.333 5.667 C 107.333 5.776,104.444 5.833,99.000 5.833 C 93.556 5.833,90.667 5.891,90.667 6.000 C 90.667 6.092,90.442 6.167,90.167 6.167 C 89.892 6.167,89.667 6.242,89.667 6.333 C 89.667 6.425,89.554 6.500,89.417 6.500 C 89.279 6.500,89.167 6.575,89.167 6.667 C 89.167 6.758,89.022 6.833,88.845 6.833 C 88.668 6.833,88.422 6.927,88.297 7.042 C 88.172 7.156,87.927 7.330,87.754 7.428 C 87.581 7.526,87.359 7.750,87.261 7.925 C 87.163 8.101,86.964 8.359,86.818 8.498 C 86.673 8.636,86.502 8.956,86.440 9.208 C 86.378 9.460,86.253 9.667,86.163 9.667 C 86.074 9.667,86.000 9.779,86.000 9.917 C 86.000 10.054,85.925 10.167,85.833 10.167 C 85.742 10.167,85.667 10.317,85.667 10.500 C 85.667 10.683,85.592 10.833,85.500 10.833 C 85.408 10.833,85.333 10.956,85.333 11.105 C 85.333 11.255,85.202 11.499,85.041 11.647 C 84.879 11.795,84.636 12.142,84.499 12.417 C 84.362 12.692,84.205 12.954,84.149 13.000 C 83.971 13.145,83.500 14.141,83.500 14.372 C 83.500 14.493,83.350 14.701,83.167 14.833 C 82.983 14.965,82.833 15.170,82.833 15.287 C 82.833 15.404,82.758 15.500,82.667 15.500 C 82.575 15.500,82.500 15.633,82.500 15.797 C 82.500 15.960,82.350 16.201,82.167 16.333 C 81.983 16.465,81.833 16.707,81.833 16.870 C 81.833 17.033,81.767 17.167,81.686 17.167 C 81.605 17.167,81.494 17.298,81.438 17.458 C 81.383 17.619,81.192 17.975,81.014 18.250 C 80.836 18.525,80.686 18.881,80.679 19.042 C 80.672 19.202,80.592 19.333,80.500 19.333 C 80.408 19.333,80.333 19.467,80.333 19.630 C 80.333 19.793,80.183 20.035,80.000 20.167 C 79.817 20.299,79.667 20.503,79.667 20.620 C 79.667 20.737,79.592 20.833,79.500 20.833 C 79.408 20.833,79.333 20.949,79.333 21.090 C 79.333 21.232,79.183 21.508,79.000 21.705 C 78.817 21.902,78.667 22.161,78.667 22.281 C 78.667 22.402,78.610 22.501,78.542 22.502 C 78.473 22.502,78.269 22.840,78.088 23.252 C 77.907 23.663,77.700 24.000,77.629 24.000 C 77.558 24.000,77.500 24.133,77.500 24.297 C 77.500 24.460,77.350 24.701,77.167 24.833 C 76.983 24.965,76.833 25.207,76.833 25.370 C 76.833 25.533,76.758 25.667,76.667 25.667 C 76.575 25.667,76.500 25.779,76.500 25.917 C 76.500 26.054,76.425 26.167,76.333 26.167 C 76.242 26.167,76.167 26.282,76.167 26.424 C 76.167 26.565,76.020 26.838,75.842 27.029 C 75.663 27.221,75.471 27.585,75.416 27.839 C 75.360 28.092,75.169 28.431,74.991 28.592 C 74.812 28.753,74.667 28.986,74.667 29.109 C 74.667 29.232,74.592 29.333,74.500 29.333 C 74.408 29.333,74.333 29.467,74.333 29.630 C 74.333 29.793,74.183 30.035,74.000 30.167 C 73.817 30.299,73.667 30.540,73.667 30.703 C 73.667 30.867,73.592 31.000,73.500 31.000 C 73.408 31.000,73.333 31.113,73.333 31.250 C 73.333 31.387,73.272 31.500,73.198 31.500 C 73.032 31.500,72.500 32.584,72.500 32.922 C 72.500 33.057,72.425 33.167,72.333 33.167 C 72.242 33.167,72.167 33.299,72.167 33.460 C 72.167 33.621,72.017 33.847,71.833 33.961 C 71.650 34.076,71.500 34.281,71.500 34.418 C 71.500 34.555,71.425 34.667,71.333 34.667 C 71.242 34.667,71.167 34.800,71.167 34.963 C 71.167 35.126,71.017 35.368,70.833 35.500 C 70.650 35.632,70.500 35.874,70.500 36.037 C 70.500 36.200,70.425 36.333,70.333 36.333 C 70.242 36.333,70.167 36.440,70.167 36.571 C 70.167 36.702,70.068 36.909,69.947 37.030 C 69.257 37.721,69.469 38.197,70.750 38.832 C 71.208 39.059,71.621 39.285,71.667 39.333 C 71.740 39.409,72.325 39.719,75.547 41.386 C 75.934 41.586,76.287 41.787,76.333 41.833 C 76.379 41.879,76.979 42.210,77.667 42.569 C 79.358 43.453,80.700 44.200,80.833 44.333 C 80.879 44.379,81.217 44.575,81.583 44.769 C 83.315 45.684,86.202 47.477,86.500 47.821 C 86.546 47.875,87.081 48.297,87.688 48.760 C 90.463 50.874,95.960 56.031,97.094 57.583 C 97.362 57.950,97.628 58.288,97.685 58.333 C 98.033 58.613,99.363 61.042,99.874 62.333 C 99.965 62.563,100.105 62.880,100.186 63.039 C 100.267 63.199,100.333 63.465,100.333 63.631 C 100.333 63.797,100.395 64.005,100.470 64.092 C 100.628 64.276,100.900 65.425,101.177 67.083 C 101.392 68.370,101.296 72.401,101.001 74.500 C 100.812 75.847,100.570 77.673,100.318 79.667 C 100.231 80.354,100.088 81.479,100.000 82.167 C 99.912 82.854,99.770 83.979,99.684 84.667 C 98.509 94.075,98.434 94.460,97.876 93.955 C 97.658 93.758,97.505 93.734,97.278 93.861 C 96.922 94.060,94.357 93.946,93.000 93.670 C 92.496 93.567,91.802 93.441,91.457 93.391 C 91.113 93.340,90.790 93.231,90.739 93.149 C 90.688 93.067,90.463 93.000,90.238 93.000 C 90.013 93.000,89.699 92.932,89.539 92.849 C 89.380 92.766,88.912 92.608,88.500 92.497 C 87.577 92.250,85.729 91.384,84.312 90.534 C 83.728 90.183,82.837 89.724,82.333 89.514 C 81.829 89.304,81.154 89.020,80.833 88.882 C 80.005 88.528,79.663 88.394,79.000 88.167 C 78.679 88.056,78.267 87.907,78.083 87.836 C 77.900 87.764,77.412 87.612,77.000 87.500 C 76.587 87.387,76.063 87.232,75.833 87.156 C 75.321 86.985,72.275 86.356,70.917 86.141 C 64.668 85.150,58.627 85.047,52.583 85.827 C 47.485 86.486,44.118 86.716,41.708 86.572 C 39.874 86.462,39.833 86.468,39.833 86.813 C 39.833 87.008,39.758 87.167,39.667 87.167 C 39.575 87.167,39.500 87.299,39.500 87.460 C 39.500 87.621,39.350 87.847,39.167 87.961 C 38.983 88.076,38.833 88.265,38.833 88.381 C 38.833 88.498,38.683 88.701,38.500 88.833 C 38.317 88.965,38.167 89.207,38.167 89.370 C 38.167 89.533,38.092 89.667,38.000 89.667 C 37.908 89.667,37.833 89.817,37.833 90.000 C 37.833 90.183,37.770 90.333,37.693 90.333 C 37.616 90.333,37.411 90.596,37.238 90.917 C 37.066 91.237,36.866 91.500,36.795 91.500 C 36.725 91.500,36.667 91.650,36.667 91.833 C 36.667 92.017,36.592 92.167,36.500 92.167 C 36.408 92.167,36.333 92.300,36.333 92.463 C 36.333 92.626,36.183 92.868,36.000 93.000 C 35.817 93.132,35.667 93.336,35.667 93.453 C 35.667 93.571,35.592 93.667,35.500 93.667 C 35.408 93.667,35.333 93.800,35.333 93.963 C 35.333 94.126,35.183 94.368,35.000 94.500 C 34.817 94.632,34.667 94.874,34.667 95.037 C 34.667 95.200,34.593 95.333,34.503 95.333 C 34.413 95.333,34.293 95.521,34.235 95.750 C 34.178 95.979,34.064 96.167,33.982 96.167 C 33.900 96.167,33.833 96.317,33.833 96.500 C 33.833 96.683,33.758 96.833,33.667 96.833 C 33.575 96.833,33.500 97.058,33.500 97.333 C 33.500 97.608,33.425 97.833,33.333 97.833 C 33.232 97.833,33.167 98.556,33.167 99.667 C 33.167 100.778,33.232 101.500,33.333 101.500 C 33.425 101.500,33.500 101.725,33.500 102.000 C 33.500 102.275,33.575 102.500,33.667 102.500 C 33.758 102.500,33.833 102.650,33.833 102.833 C 33.833 103.017,33.908 103.167,34.000 103.167 C 34.092 103.167,34.167 103.273,34.167 103.403 C 34.167 103.701,34.707 104.664,34.875 104.666 C 34.944 104.666,35.000 104.817,35.000 105.000 C 35.000 105.183,35.075 105.333,35.167 105.333 C 35.258 105.333,35.333 105.432,35.333 105.552 C 35.333 105.672,35.483 105.931,35.667 106.128 C 35.850 106.325,36.000 106.564,36.000 106.660 C 36.000 106.755,36.075 106.833,36.167 106.833 C 36.258 106.833,36.333 106.956,36.333 107.105 C 36.333 107.255,36.473 107.499,36.644 107.647 C 36.815 107.796,37.007 108.153,37.070 108.441 C 37.134 108.730,37.331 109.097,37.509 109.259 C 37.688 109.420,37.833 109.653,37.833 109.776 C 37.833 109.899,37.908 110.000,38.000 110.000 C 38.092 110.000,38.167 110.150,38.167 110.333 C 38.167 110.517,38.242 110.667,38.333 110.667 C 38.425 110.667,38.500 110.800,38.500 110.963 C 38.500 111.126,38.650 111.368,38.833 111.500 C 39.017 111.632,39.167 111.836,39.167 111.953 C 39.167 112.071,39.242 112.167,39.333 112.167 C 39.425 112.167,39.500 112.285,39.500 112.429 C 39.500 112.573,39.612 112.803,39.750 112.940 C 39.887 113.078,40.000 113.335,40.000 113.512 C 40.000 113.689,40.075 113.833,40.167 113.833 C 40.258 113.833,40.333 113.934,40.333 114.058 C 40.333 114.181,40.483 114.417,40.667 114.583 C 40.850 114.749,41.000 114.986,41.000 115.109 C 41.000 115.232,41.075 115.333,41.167 115.333 C 41.258 115.333,41.333 115.467,41.333 115.630 C 41.333 115.793,41.483 116.035,41.667 116.167 C 41.850 116.299,42.000 116.540,42.000 116.703 C 42.000 116.867,42.056 117.000,42.125 117.001 C 42.194 117.001,42.389 117.338,42.558 117.751 C 42.728 118.163,42.934 118.500,43.017 118.500 C 43.099 118.500,43.167 118.650,43.167 118.833 C 43.167 119.017,43.242 119.167,43.333 119.167 C 43.425 119.167,43.500 119.265,43.500 119.385 C 43.500 119.505,43.650 119.765,43.833 119.962 C 44.017 120.158,44.167 120.398,44.167 120.493 C 44.167 120.589,44.242 120.667,44.333 120.667 C 44.425 120.667,44.500 120.789,44.500 120.939 C 44.500 121.088,44.640 121.332,44.811 121.481 C 44.982 121.629,45.172 121.979,45.234 122.259 C 45.295 122.539,45.493 122.875,45.673 123.004 C 45.853 123.134,46.000 123.374,46.000 123.537 C 46.000 123.700,46.075 123.833,46.167 123.833 C 46.258 123.833,46.333 123.983,46.333 124.167 C 46.333 124.350,46.408 124.500,46.500 124.500 C 46.592 124.500,46.667 124.598,46.667 124.719 C 46.667 124.839,46.817 125.098,47.000 125.295 C 47.183 125.492,47.333 125.731,47.333 125.826 C 47.333 125.922,47.408 126.000,47.500 126.000 C 47.592 126.000,47.667 126.150,47.667 126.333 C 47.667 126.517,47.727 126.667,47.801 126.667 C 47.875 126.667,48.075 126.985,48.246 127.375 C 48.416 127.765,48.693 128.205,48.861 128.353 C 49.029 128.501,49.167 128.745,49.167 128.895 C 49.167 129.044,49.242 129.167,49.333 129.167 C 49.425 129.167,49.500 129.317,49.500 129.500 C 49.500 129.683,49.575 129.833,49.667 129.833 C 49.758 129.833,49.833 129.956,49.833 130.105 C 49.833 130.255,49.967 130.499,50.130 130.647 C 50.293 130.795,50.567 131.235,50.739 131.625 C 50.910 132.015,51.114 132.333,51.192 132.333 C 51.270 132.333,51.333 132.483,51.333 132.667 C 51.333 132.850,51.408 133.000,51.500 133.000 C 51.592 133.000,51.667 133.096,51.667 133.213 C 51.667 133.330,51.817 133.535,52.000 133.667 C 52.183 133.799,52.333 134.040,52.333 134.203 C 52.333 134.367,52.408 134.500,52.500 134.500 C 52.592 134.500,52.667 134.633,52.667 134.797 C 52.667 134.960,52.817 135.201,53.000 135.333 C 53.183 135.465,53.333 135.670,53.333 135.788 C 53.333 136.086,54.202 137.667,54.366 137.667 C 54.440 137.667,54.500 137.817,54.500 138.000 C 54.500 138.183,54.575 138.333,54.667 138.333 C 54.758 138.333,54.833 138.429,54.833 138.547 C 54.833 138.664,54.983 138.868,55.167 139.000 C 55.350 139.132,55.500 139.374,55.500 139.537 C 55.500 139.700,55.575 139.833,55.667 139.833 C 55.758 139.833,55.833 139.983,55.833 140.167 C 55.833 140.350,55.894 140.500,55.968 140.500 C 56.042 140.500,56.242 140.819,56.412 141.208 C 56.583 141.598,56.860 142.038,57.028 142.186 C 57.196 142.334,57.333 142.578,57.333 142.728 C 57.333 142.878,57.408 143.000,57.500 143.000 C 57.592 143.000,57.667 143.150,57.667 143.333 C 57.667 143.517,57.742 143.667,57.833 143.667 C 57.925 143.667,58.000 143.779,58.000 143.915 C 58.000 144.052,58.150 144.258,58.333 144.372 C 58.517 144.487,58.667 144.712,58.667 144.873 C 58.667 145.035,58.742 145.167,58.833 145.167 C 58.925 145.167,59.000 145.311,59.000 145.488 C 59.000 145.665,59.113 145.922,59.250 146.060 C 59.388 146.197,59.500 146.427,59.500 146.571 C 59.500 146.715,59.575 146.833,59.667 146.833 C 59.758 146.833,59.833 146.929,59.833 147.047 C 59.833 147.164,59.983 147.368,60.167 147.500 C 60.350 147.632,60.500 147.874,60.500 148.037 C 60.500 148.200,60.575 148.333,60.667 148.333 C 60.758 148.333,60.833 148.467,60.833 148.630 C 60.833 148.793,60.983 149.035,61.167 149.167 C 61.350 149.299,61.500 149.512,61.500 149.640 C 61.500 149.768,61.819 150.182,62.208 150.561 L 62.917 151.250 64.711 151.250 L 66.505 151.250 67.252 150.459 C 67.664 150.024,68.000 149.593,68.000 149.501 C 68.000 149.409,68.075 149.333,68.167 149.333 C 68.258 149.333,68.333 149.183,68.333 149.000 C 68.333 148.817,68.408 148.667,68.500 148.667 C 68.592 148.667,68.667 148.544,68.667 148.395 C 68.667 148.245,68.802 148.001,68.967 147.853 C 69.299 147.555,69.833 146.496,69.833 146.137 C 69.833 146.010,69.983 145.799,70.167 145.667 C 70.350 145.535,70.500 145.293,70.500 145.130 C 70.500 144.967,70.561 144.833,70.636 144.833 C 70.710 144.833,70.874 144.571,71.000 144.250 C 71.126 143.929,71.290 143.667,71.364 143.667 C 71.439 143.667,71.500 143.517,71.500 143.333 C 71.500 143.150,71.560 143.000,71.634 143.000 C 71.809 143.000,72.667 141.410,72.667 141.085 C 72.667 140.946,72.742 140.833,72.833 140.833 C 72.925 140.833,73.000 140.700,73.000 140.537 C 73.000 140.374,73.150 140.132,73.333 140.000 C 73.517 139.868,73.667 139.626,73.667 139.463 C 73.667 139.300,73.742 139.167,73.833 139.167 C 73.925 139.167,74.000 139.054,74.000 138.917 C 74.000 138.779,74.075 138.667,74.167 138.667 C 74.258 138.667,74.333 138.517,74.333 138.333 C 74.333 138.150,74.394 138.000,74.467 138.000 C 74.642 138.000,75.500 136.410,75.500 136.085 C 75.500 135.946,75.575 135.833,75.667 135.833 C 75.758 135.833,75.833 135.700,75.833 135.537 C 75.833 135.374,75.983 135.132,76.167 135.000 C 76.350 134.868,76.500 134.626,76.500 134.463 C 76.500 134.300,76.557 134.167,76.626 134.167 C 76.695 134.167,76.860 133.923,76.992 133.625 C 77.124 133.327,77.366 132.939,77.530 132.762 C 77.695 132.586,77.876 132.192,77.933 131.887 C 77.990 131.583,78.104 131.333,78.185 131.333 C 78.267 131.333,78.333 131.221,78.333 131.083 C 78.333 130.946,78.408 130.833,78.500 130.833 C 78.592 130.833,78.667 130.700,78.667 130.537 C 78.667 130.374,78.817 130.132,79.000 130.000 C 79.183 129.868,79.333 129.626,79.333 129.463 C 79.333 129.300,79.408 129.167,79.500 129.167 C 79.592 129.167,79.667 129.017,79.667 128.833 C 79.667 128.650,79.742 128.500,79.833 128.500 C 79.925 128.500,80.000 128.387,80.000 128.250 C 80.000 128.112,80.075 128.000,80.167 128.000 C 80.258 128.000,80.333 127.882,80.333 127.738 C 80.333 127.594,80.446 127.364,80.583 127.226 C 80.721 127.089,80.833 126.832,80.833 126.655 C 80.833 126.478,80.908 126.333,81.000 126.333 C 81.092 126.333,81.167 126.183,81.167 126.000 C 81.167 125.817,81.242 125.667,81.333 125.667 C 81.425 125.667,81.500 125.571,81.500 125.453 C 81.500 125.336,81.650 125.132,81.833 125.000 C 82.017 124.868,82.167 124.626,82.167 124.463 C 82.167 124.300,82.242 124.167,82.333 124.167 C 82.425 124.167,82.500 124.017,82.500 123.833 C 82.500 123.650,82.557 123.500,82.626 123.500 C 82.695 123.500,82.859 123.256,82.991 122.958 C 83.122 122.660,83.328 122.318,83.448 122.196 C 83.568 122.075,83.667 121.832,83.667 121.655 C 83.667 121.478,83.742 121.333,83.833 121.333 C 83.925 121.333,84.000 121.183,84.000 121.000 C 84.000 120.817,84.075 120.667,84.167 120.667 C 84.258 120.667,84.333 120.589,84.333 120.493 C 84.333 120.398,84.483 120.158,84.667 119.962 C 84.850 119.765,85.000 119.505,85.000 119.385 C 85.000 119.265,85.075 119.167,85.167 119.167 C 85.258 119.167,85.333 119.017,85.333 118.833 C 85.333 118.650,85.408 118.500,85.500 118.500 C 85.592 118.500,85.667 118.350,85.667 118.167 C 85.667 117.983,85.742 117.833,85.833 117.833 C 85.925 117.833,86.000 117.730,86.000 117.604 C 86.000 117.477,86.112 117.281,86.250 117.167 C 86.388 117.053,86.500 116.818,86.500 116.646 C 86.500 116.474,86.575 116.333,86.667 116.333 C 86.758 116.333,86.833 116.183,86.833 116.000 C 86.833 115.817,86.908 115.667,87.000 115.667 C 87.092 115.667,87.167 115.544,87.167 115.395 C 87.167 115.245,87.304 115.001,87.471 114.853 C 87.638 114.705,87.882 114.340,88.012 114.042 C 88.142 113.744,88.305 113.500,88.374 113.500 C 88.443 113.500,88.500 113.350,88.500 113.167 C 88.500 112.983,88.575 112.833,88.667 112.833 C 88.758 112.833,88.833 112.693,88.833 112.520 C 88.833 112.348,88.946 112.114,89.083 112.000 C 89.221 111.886,89.333 111.689,89.333 111.563 C 89.333 111.437,89.408 111.333,89.500 111.333 C 89.592 111.333,89.667 111.183,89.667 111.000 C 89.667 110.817,89.742 110.667,89.833 110.667 C 89.925 110.667,90.000 110.517,90.000 110.333 C 90.000 110.150,90.075 110.000,90.167 110.000 C 90.258 110.000,90.333 109.888,90.333 109.750 C 90.333 109.612,90.397 109.500,90.474 109.500 C 90.551 109.500,90.794 109.144,91.013 108.708 C 91.233 108.273,91.458 107.879,91.514 107.833 C 91.570 107.787,91.666 107.544,91.728 107.292 C 91.789 107.040,91.913 106.833,92.003 106.833 C 92.093 106.833,92.167 106.721,92.167 106.583 C 92.167 106.446,92.242 106.333,92.333 106.333 C 92.425 106.333,92.500 106.183,92.500 106.000 C 92.500 105.817,92.575 105.667,92.667 105.667 C 92.758 105.667,92.833 105.517,92.833 105.333 C 92.833 105.150,92.908 105.000,93.000 105.000 C 93.092 105.000,93.167 104.878,93.167 104.728 C 93.167 104.578,93.301 104.334,93.466 104.186 C 93.631 104.038,93.981 103.467,94.244 102.917 C 94.508 102.367,94.773 101.879,94.833 101.833 C 94.894 101.787,95.049 101.506,95.179 101.208 C 95.309 100.910,95.471 100.667,95.541 100.667 C 95.610 100.667,95.667 100.517,95.667 100.333 C 95.667 100.150,95.742 100.000,95.833 100.000 C 95.925 100.000,96.000 99.878,96.000 99.728 C 96.000 99.578,96.137 99.334,96.303 99.186 C 96.470 99.038,96.826 98.448,97.095 97.875 C 97.363 97.302,97.639 96.833,97.708 96.833 C 97.777 96.833,97.833 96.683,97.833 96.500 C 97.833 96.317,97.908 96.167,98.000 96.167 C 98.092 96.167,98.167 96.054,98.167 95.917 C 98.167 95.779,98.242 95.667,98.333 95.667 C 98.425 95.667,98.500 95.517,98.500 95.333 C 98.500 95.150,98.575 95.000,98.667 95.000 C 98.758 95.000,98.833 94.867,98.833 94.703 C 98.833 94.540,98.983 94.299,99.167 94.167 C 99.350 94.035,99.500 93.793,99.500 93.630 C 99.500 93.467,99.572 93.333,99.659 93.333 C 99.747 93.333,99.867 93.071,99.928 92.750 C 99.988 92.429,100.104 92.167,100.185 92.167 C 100.267 92.167,100.333 92.033,100.333 91.870 C 100.333 91.707,100.483 91.465,100.667 91.333 C 100.850 91.201,101.000 90.960,101.000 90.797 C 101.000 90.633,101.075 90.500,101.167 90.500 C 101.258 90.500,101.333 90.388,101.333 90.250 C 101.333 90.112,101.408 90.000,101.500 90.000 C 101.592 90.000,101.667 89.850,101.667 89.667 C 101.667 89.483,101.727 89.333,101.801 89.333 C 101.976 89.333,102.833 87.743,102.833 87.418 C 102.833 87.280,102.908 87.167,103.000 87.167 C 103.092 87.167,103.167 87.033,103.167 86.870 C 103.167 86.707,103.317 86.465,103.500 86.333 C 103.683 86.201,103.833 85.960,103.833 85.797 C 103.833 85.633,103.894 85.500,103.969 85.500 C 104.043 85.500,104.207 85.237,104.333 84.917 C 104.459 84.596,104.614 84.333,104.678 84.333 C 104.816 84.333,105.667 82.634,105.667 82.358 C 105.667 82.253,105.742 82.167,105.833 82.167 C 105.925 82.167,106.000 82.033,106.000 81.870 C 106.000 81.707,106.150 81.465,106.333 81.333 C 106.517 81.201,106.667 80.960,106.667 80.797 C 106.667 80.633,106.742 80.500,106.833 80.500 C 106.925 80.500,107.000 80.350,107.000 80.167 C 107.000 79.983,107.075 79.833,107.167 79.833 C 107.258 79.833,107.333 79.721,107.333 79.583 C 107.333 79.446,107.408 79.333,107.500 79.333 C 107.592 79.333,107.667 79.215,107.667 79.071 C 107.667 78.927,107.779 78.697,107.917 78.560 C 108.054 78.422,108.167 78.165,108.167 77.988 C 108.167 77.811,108.242 77.667,108.333 77.667 C 108.425 77.667,108.500 77.517,108.500 77.333 C 108.500 77.150,108.575 77.000,108.667 77.000 C 108.758 77.000,108.833 76.904,108.833 76.787 C 108.833 76.670,108.983 76.465,109.167 76.333 C 109.350 76.201,109.500 75.960,109.500 75.797 C 109.500 75.633,109.575 75.500,109.667 75.500 C 109.758 75.500,109.833 75.350,109.833 75.167 C 109.833 74.983,109.890 74.833,109.959 74.833 C 110.029 74.833,110.193 74.590,110.324 74.292 C 110.455 73.994,110.661 73.651,110.781 73.530 C 110.902 73.409,111.000 73.165,111.000 72.988 C 111.000 72.811,111.075 72.667,111.167 72.667 C 111.258 72.667,111.333 72.517,111.333 72.333 C 111.333 72.150,111.408 72.000,111.500 72.000 C 111.592 72.000,111.667 71.922,111.667 71.826 C 111.667 71.731,111.817 71.492,112.000 71.295 C 112.183 71.098,112.333 70.839,112.333 70.719 C 112.333 70.598,112.408 70.500,112.500 70.500 C 112.592 70.500,112.667 70.350,112.667 70.167 C 112.667 69.983,112.742 69.833,112.833 69.833 C 112.925 69.833,113.000 69.683,113.000 69.500 C 113.000 69.317,113.075 69.167,113.167 69.167 C 113.258 69.167,113.333 69.063,113.333 68.937 C 113.333 68.811,113.446 68.614,113.583 68.500 C 113.721 68.386,113.833 68.152,113.833 67.980 C 113.833 67.807,113.908 67.667,114.000 67.667 C 114.092 67.667,114.167 67.517,114.167 67.333 C 114.167 67.150,114.242 67.000,114.333 67.000 C 114.425 67.000,114.500 66.878,114.500 66.728 C 114.500 66.578,114.637 66.334,114.804 66.186 C 114.972 66.038,115.215 65.673,115.345 65.375 C 115.475 65.077,115.638 64.833,115.707 64.833 C 115.777 64.833,115.833 64.683,115.833 64.500 C 115.833 64.317,115.908 64.167,116.000 64.167 C 116.092 64.167,116.167 64.017,116.167 63.833 C 116.167 63.650,116.240 63.500,116.330 63.500 C 116.420 63.500,116.541 63.312,116.598 63.083 C 116.656 62.854,116.770 62.667,116.851 62.667 C 116.933 62.667,117.000 62.517,117.000 62.333 C 117.000 62.150,117.075 62.000,117.167 62.000 C 117.258 62.000,117.333 61.850,117.333 61.667 C 117.333 61.483,117.408 61.333,117.500 61.333 C 117.592 61.333,117.667 61.255,117.667 61.160 C 117.667 61.064,117.817 60.825,118.000 60.628 C 118.183 60.431,118.333 60.172,118.333 60.052 C 118.333 59.932,118.408 59.833,118.500 59.833 C 118.592 59.833,118.667 59.683,118.667 59.500 C 118.667 59.317,118.742 59.167,118.833 59.167 C 118.925 59.167,119.000 59.022,119.000 58.845 C 119.000 58.668,119.112 58.411,119.250 58.274 C 119.388 58.136,119.500 57.943,119.500 57.845 C 119.500 57.747,119.575 57.667,119.667 57.667 C 119.758 57.667,119.833 57.517,119.833 57.333 C 119.833 57.150,119.908 57.000,120.000 57.000 C 120.092 57.000,120.167 56.850,120.167 56.667 C 120.167 56.483,120.242 56.333,120.333 56.333 C 120.425 56.333,120.500 56.211,120.500 56.061 C 120.500 55.912,120.635 55.668,120.799 55.520 C 120.964 55.371,121.314 54.800,121.578 54.250 C 121.841 53.700,122.106 53.212,122.167 53.167 C 122.227 53.121,122.383 52.840,122.512 52.542 C 122.642 52.244,122.805 52.000,122.874 52.000 C 122.943 52.000,123.000 51.850,123.000 51.667 C 123.000 51.483,123.075 51.333,123.167 51.333 C 123.258 51.333,123.333 51.211,123.333 51.061 C 123.333 50.912,123.470 50.668,123.637 50.520 C 123.804 50.371,124.160 49.781,124.428 49.208 C 124.697 48.635,124.973 48.167,125.041 48.167 C 125.110 48.167,125.167 48.017,125.167 47.833 C 125.167 47.650,125.242 47.500,125.333 47.500 C 125.425 47.500,125.500 47.387,125.500 47.250 C 125.500 47.112,125.575 47.000,125.667 47.000 C 125.758 47.000,125.833 46.850,125.833 46.667 C 125.833 46.483,125.908 46.333,126.000 46.333 C 126.092 46.333,126.167 46.200,126.167 46.037 C 126.167 45.874,126.317 45.632,126.500 45.500 C 126.683 45.368,126.833 45.126,126.833 44.963 C 126.833 44.800,126.905 44.667,126.992 44.667 C 127.080 44.667,127.201 44.404,127.261 44.083 C 127.321 43.762,127.437 43.500,127.519 43.500 C 127.600 43.500,127.667 43.367,127.667 43.203 C 127.667 43.040,127.817 42.799,128.000 42.667 C 128.183 42.535,128.333 42.293,128.333 42.130 C 128.333 41.967,128.408 41.833,128.500 41.833 C 128.592 41.833,128.667 41.721,128.667 41.583 C 128.667 41.446,128.742 41.333,128.833 41.333 C 128.925 41.333,129.000 41.183,129.000 41.000 C 129.000 40.817,129.060 40.667,129.134 40.667 C 129.309 40.667,130.167 39.076,130.167 38.751 C 130.167 38.613,130.242 38.500,130.333 38.500 C 130.425 38.500,130.500 38.367,130.500 38.203 C 130.500 38.040,130.650 37.799,130.833 37.667 C 131.017 37.535,131.167 37.293,131.167 37.130 C 131.167 36.967,131.228 36.833,131.302 36.833 C 131.377 36.833,131.541 36.571,131.667 36.250 C 131.793 35.929,131.948 35.667,132.012 35.667 C 132.150 35.667,133.000 33.968,133.000 33.692 C 133.000 33.586,133.075 33.500,133.167 33.500 C 133.258 33.500,133.333 33.367,133.333 33.203 C 133.333 33.040,133.483 32.799,133.667 32.667 C 133.850 32.535,134.000 32.293,134.000 32.130 C 134.000 31.967,134.075 31.833,134.167 31.833 C 134.258 31.833,134.333 31.683,134.333 31.500 C 134.333 31.317,134.408 31.167,134.500 31.167 C 134.592 31.167,134.667 31.054,134.667 30.917 C 134.667 30.779,134.733 30.667,134.814 30.667 C 134.988 30.667,135.833 28.935,135.833 28.579 C 135.833 28.444,135.908 28.333,136.000 28.333 C 136.092 28.333,136.167 28.237,136.167 28.120 C 136.167 28.003,136.317 27.799,136.500 27.667 C 136.683 27.535,136.833 27.293,136.833 27.130 C 136.833 26.967,136.908 26.833,137.000 26.833 C 137.092 26.833,137.167 26.683,137.167 26.500 C 137.167 26.317,137.223 26.167,137.293 26.167 C 137.362 26.167,137.526 25.923,137.657 25.625 C 137.789 25.327,137.995 24.984,138.115 24.863 C 138.235 24.742,138.333 24.498,138.333 24.321 C 138.333 24.145,138.408 24.000,138.500 24.000 C 138.592 24.000,138.667 23.850,138.667 23.667 C 138.667 23.483,138.742 23.333,138.833 23.333 C 138.925 23.333,139.000 23.255,139.000 23.160 C 139.000 23.064,139.150 22.825,139.333 22.628 C 139.517 22.431,139.667 22.172,139.667 22.052 C 139.667 21.932,139.742 21.833,139.833 21.833 C 139.925 21.833,140.000 21.683,140.000 21.500 C 140.000 21.317,140.075 21.167,140.167 21.167 C 140.258 21.167,140.333 21.017,140.333 20.833 C 140.333 20.650,140.408 20.500,140.500 20.500 C 140.592 20.500,140.667 20.397,140.667 20.270 C 140.667 20.144,140.779 19.947,140.917 19.833 C 141.054 19.719,141.167 19.485,141.167 19.313 C 141.167 19.141,141.242 19.000,141.333 19.000 C 141.425 19.000,141.500 18.850,141.500 18.667 C 141.500 18.483,141.575 18.333,141.667 18.333 C 141.758 18.333,141.833 18.211,141.833 18.061 C 141.833 17.912,141.970 17.668,142.138 17.520 C 142.305 17.371,142.548 17.006,142.678 16.708 C 142.808 16.410,142.971 16.167,143.041 16.167 C 143.110 16.167,143.167 16.017,143.167 15.833 C 143.167 15.650,143.242 15.500,143.333 15.500 C 143.425 15.500,143.500 15.350,143.500 15.167 C 143.500 14.983,143.574 14.833,143.663 14.833 C 143.753 14.833,143.874 14.646,143.932 14.417 C 143.989 14.188,144.103 14.000,144.185 14.000 C 144.266 14.000,144.333 13.850,144.333 13.667 C 144.333 13.483,144.408 13.333,144.500 13.333 C 144.592 13.333,144.667 13.183,144.667 13.000 C 144.667 12.817,144.742 12.667,144.833 12.667 C 144.925 12.667,145.000 12.589,145.000 12.493 C 145.000 12.398,145.150 12.158,145.333 11.962 C 145.517 11.765,145.667 11.505,145.667 11.385 C 145.667 11.265,145.742 11.167,145.833 11.167 C 145.925 11.167,146.000 11.017,146.000 10.833 C 146.000 10.650,146.075 10.500,146.167 10.500 C 146.400 10.500,146.378 7.948,146.140 7.425 C 146.034 7.191,145.887 7.000,145.814 7.000 C 145.741 7.000,145.494 6.813,145.265 6.583 C 145.036 6.354,144.733 6.167,144.591 6.167 C 144.449 6.167,144.333 6.092,144.333 6.000 C 144.333 5.908,144.071 5.833,143.750 5.833 C 143.429 5.833,143.167 5.758,143.167 5.667 C 143.167 5.557,137.083 5.500,125.250 5.500 C 113.417 5.500,107.333 5.557,107.333 5.667 M60.375 53.109 C 60.260 53.156,60.167 53.304,60.167 53.438 C 60.167 53.571,60.017 53.842,59.833 54.038 C 59.650 54.235,59.500 54.495,59.500 54.615 C 59.500 54.735,59.433 54.833,59.352 54.833 C 59.270 54.833,59.158 55.080,59.101 55.380 C 59.045 55.681,58.849 56.035,58.666 56.167 C 58.483 56.299,58.333 56.540,58.333 56.703 C 58.333 56.867,58.258 57.000,58.167 57.000 C 58.075 57.000,58.000 57.133,58.000 57.297 C 58.000 57.460,57.850 57.701,57.667 57.833 C 57.483 57.965,57.333 58.170,57.333 58.287 C 57.333 58.404,57.258 58.500,57.167 58.500 C 57.075 58.500,57.000 58.644,57.000 58.819 C 57.000 58.995,56.921 59.165,56.824 59.198 C 56.413 59.335,56.912 59.781,57.878 60.140 C 59.066 60.581,59.627 60.810,60.039 61.019 C 60.199 61.100,60.465 61.167,60.631 61.167 C 60.797 61.167,61.005 61.229,61.092 61.304 C 61.179 61.380,61.587 61.544,62.000 61.668 C 62.413 61.792,62.825 61.942,62.917 62.003 C 63.008 62.063,63.683 62.315,64.417 62.564 C 65.150 62.813,65.938 63.098,66.167 63.197 C 66.668 63.415,67.296 63.667,67.750 63.833 C 67.933 63.900,68.271 64.035,68.500 64.133 C 68.729 64.230,69.367 64.471,69.917 64.667 C 70.467 64.864,71.179 65.140,71.500 65.280 C 71.821 65.420,72.233 65.592,72.417 65.663 C 73.619 66.126,77.400 67.975,78.583 68.678 C 79.042 68.950,79.567 69.240,79.750 69.321 C 80.157 69.503,82.840 71.365,83.849 72.167 C 85.131 73.185,89.956 78.151,92.270 80.833 C 92.626 81.246,92.955 81.621,93.001 81.667 C 93.047 81.712,93.306 82.050,93.575 82.417 C 93.845 82.783,94.116 83.121,94.178 83.167 C 94.442 83.364,96.346 86.413,96.751 87.290 C 96.996 87.818,97.264 88.380,97.348 88.539 C 97.432 88.699,97.500 88.947,97.500 89.091 C 97.500 89.235,97.558 89.317,97.629 89.274 C 97.868 89.126,97.230 83.632,96.684 81.132 C 96.055 78.253,94.146 74.118,92.391 71.834 C 89.921 68.618,85.848 64.931,83.333 63.632 C 83.104 63.514,82.879 63.380,82.833 63.334 C 82.787 63.288,82.600 63.168,82.417 63.067 C 82.233 62.967,81.558 62.597,80.917 62.245 C 78.871 61.125,73.591 58.504,73.375 58.502 C 73.260 58.501,73.167 58.425,73.167 58.333 C 73.167 58.242,73.067 58.167,72.944 58.167 C 72.822 58.167,72.182 57.904,71.523 57.583 C 70.864 57.262,70.284 57.000,70.235 57.000 C 70.186 57.000,69.644 56.768,69.031 56.483 C 68.418 56.199,67.579 55.816,67.167 55.632 C 66.754 55.448,66.286 55.230,66.127 55.148 C 65.968 55.067,65.724 55.000,65.586 55.000 C 65.447 55.000,65.333 54.943,65.333 54.874 C 65.333 54.805,65.037 54.655,64.675 54.542 C 64.091 54.360,62.532 53.702,61.828 53.340 C 61.446 53.144,60.612 53.011,60.375 53.109 M51.670 68.290 C 51.237 68.460,50.500 69.458,50.500 69.874 C 50.500 69.994,50.350 70.201,50.167 70.333 C 49.983 70.465,49.833 70.690,49.833 70.833 C 49.833 70.976,49.683 71.201,49.500 71.333 C 49.317 71.465,49.167 71.670,49.167 71.787 C 49.167 71.904,49.092 72.000,49.000 72.000 C 48.711 72.000,48.820 72.640,49.125 72.733 C 49.285 72.781,50.017 72.936,50.750 73.077 C 51.483 73.217,52.496 73.412,53.000 73.509 C 53.504 73.607,54.147 73.757,54.428 73.843 C 54.710 73.930,55.174 74.000,55.460 74.000 C 55.746 74.000,56.027 74.075,56.083 74.167 C 56.140 74.258,56.477 74.333,56.833 74.333 C 57.189 74.333,57.527 74.408,57.583 74.500 C 57.640 74.592,57.940 74.667,58.250 74.667 C 58.560 74.667,58.855 74.734,58.906 74.816 C 58.956 74.898,59.280 75.002,59.624 75.047 C 60.151 75.116,61.730 75.509,64.083 76.155 C 65.067 76.426,68.255 77.509,68.539 77.670 C 68.699 77.760,68.922 77.833,69.036 77.833 C 69.268 77.833,71.424 78.601,71.873 78.844 C 72.032 78.930,72.239 79.000,72.333 79.000 C 72.427 79.000,72.859 79.157,73.293 79.350 C 73.728 79.542,74.252 79.767,74.458 79.850 C 74.665 79.932,75.002 80.067,75.208 80.150 C 75.415 80.232,75.846 80.412,76.167 80.550 C 76.487 80.689,77.237 81.002,77.833 81.247 C 79.443 81.909,83.598 83.962,84.809 84.693 C 85.391 85.045,85.890 85.333,85.918 85.333 C 86.247 85.333,90.823 88.479,93.000 90.201 C 94.799 91.625,95.212 91.917,96.244 92.497 C 97.507 93.206,97.576 92.986,96.642 91.224 C 94.634 87.434,90.126 83.457,84.917 80.879 C 84.550 80.698,83.950 80.397,83.583 80.210 C 82.482 79.650,80.826 78.887,79.500 78.328 C 78.813 78.038,77.837 77.613,77.333 77.383 C 76.829 77.153,76.267 76.905,76.083 76.832 C 75.900 76.760,75.412 76.552,75.000 76.372 C 74.587 76.191,74.063 75.986,73.833 75.915 C 73.604 75.845,73.004 75.602,72.500 75.376 C 71.996 75.149,71.340 74.860,71.042 74.732 C 70.744 74.604,70.256 74.393,69.958 74.263 C 69.660 74.132,68.592 73.715,67.583 73.337 C 66.575 72.958,65.620 72.577,65.461 72.491 C 65.301 72.404,65.057 72.333,64.917 72.333 C 64.777 72.333,64.513 72.258,64.331 72.167 C 64.149 72.075,63.851 71.925,63.669 71.833 C 63.487 71.742,63.191 71.667,63.012 71.667 C 62.833 71.667,62.640 71.592,62.583 71.500 C 62.527 71.408,62.334 71.333,62.155 71.333 C 61.975 71.333,61.699 71.265,61.539 71.181 C 61.380 71.097,60.688 70.863,60.000 70.660 C 59.313 70.458,58.450 70.200,58.083 70.088 C 57.717 69.975,56.854 69.714,56.167 69.508 C 55.479 69.301,54.786 69.065,54.627 68.983 C 54.468 68.901,54.154 68.833,53.929 68.833 C 53.704 68.833,53.479 68.767,53.429 68.686 C 53.378 68.605,53.130 68.503,52.877 68.459 C 52.624 68.416,52.304 68.338,52.167 68.287 C 52.029 68.235,51.806 68.237,51.670 68.290 " stroke="none" fill="#36b1b7" fill-rule="evenodd"/><path fill="#ffffff" d="M235 4798 c-44 -119 -99 -296 -106 -341 -12 -75 8 -158 55 -230 51 -77 267 -291 381 -378 274 -209 578 -376 1035 -569 514 -217 609 -258 800 -351 241 -118 346 -185 450 -289 167 -167 232 -326 264 -645 l7 -60 -24 56 c-46 108 -92 172 -250 347 -225 249 -382 339 -932 535 -613 218 -809 295 -1015 398 -296 148 -559 345 -739 554 -50 58 -97 114 -103 125 -7 11 -18 20 -25 20 -17 0 -28 -113 -27 -270 1 -117 5 -146 27 -215 70 -213 192 -337 470 -475 136 -67 164 -77 647 -214 519 -148 758 -220 914 -275 133 -47 549 -226 646 -278 195 -104 333 -232 385 -358 l15 -34 -28 10 c-15 5 -63 37 -107 70 -210 161 -426 278 -700 379 -257 95 -322 111 -945 231 -242 46 -464 107 -620 168 -113 45 -285 133 -357 182 -70 48 -75 31 -30 -104 86 -262 261 -458 522 -587 245 -121 478 -155 780 -115 254 34 470 29 690 -16 140 -28 230 -60 380 -134 148 -72 235 -97 351 -102 l82 -3 10 73 c35 234 82 631 82 692 0 99 -23 198 -67 285 -31 62 -59 97 -167 205 -231 231 -288 265 -1162 713 -193 98 -420 221 -505 272 -210 126 -666 431 -780 522 -83 66 -253 191 -287 212 -7 4 -14 2 -17 -6z" transform="translate(0.000000,482.000000) scale(0.100000,-0.100000)"/>
    </g>
</svg>
